<?xml version="1.0" encoding="UTF-8"?>
<svg id="Layer_1" data-name="Layer 1" xmlns="http://www.w3.org/2000/svg" viewBox="0 0 750.97 956.54">
  <defs>
    <style>
      .cls-1 {
        stroke-width: 27.8px;
      }

      .cls-1, .cls-2 {
        fill: none;
        stroke: #020202;
        stroke-linecap: round;
        stroke-linejoin: round;
      }

      .cls-2 {
        stroke-width: 24.37px;
      }
    </style>
  </defs>
  <g>
    <path class="cls-1" d="M737.07,785.13c-.02,59.73-51.04,120.61-112.3,124.19-96.42,7.25-192.14,21.41-288.56,28.66-63.5,4.52-113.1-59.56-112.3-119.1V137.64c-.8-59.67,48.85-123.6,112.3-119.85,96.35,6.03,192.21,17.81,288.56,23.84,61.35,2.85,112.28,63.86,112.3,123.44v620.05Z"/>
    <path class="cls-2" d="M480.49,639.49v84.82"/>
    <g>
      <path class="cls-2" d="M416.05,449.49c-12.56,24.41-25.12,48.8-37.75,73.17"/>
      <path class="cls-2" d="M544.93,449.35c12.39,23.06,24.96,46.01,37.75,68.85"/>
    </g>
  </g>
  <path class="cls-1" d="M322.19,939.11c-65.17-4.45-125.71-24.66-187.86-43.22-57.05-16.91-111.46-77.63-111.41-138.93-2.24-191.9-3.93-383.82-6.21-575.72-1.53-60.14,51.56-119.01,109.13-130.98,63.98-13.51,126.7-29.46,192.27-32.93"/>
</svg>