<?xml version="1.0" encoding="UTF-8"?>
<svg id="Layer_1" data-name="Layer 1" xmlns="http://www.w3.org/2000/svg" viewBox="0 0 141.73 141.73">
  <defs>
    <style>
      .cls-1 {
        fill: #231f20;
      }
    </style>
  </defs>
  <path class="cls-1" d="M139.82,66.24L75.49,1.92c-2.55-2.55-6.69-2.55-9.25,0L1.92,66.24c-2.55,2.55-2.55,6.69,0,9.25l64.33,64.32c2.55,2.55,6.7,2.55,9.25,0l64.33-64.32c2.55-2.56,2.55-6.7,0-9.25ZM114.27,85.29h-39.02v-26.01l19.51-13.01,19.51,13.01v26.01Z"/>
  <path class="cls-1" d="M66.24,139.82c2.55,2.55,6.7,2.55,9.25,0l54.53-54.53H11.71l54.53,54.53Z"/>
  <path class="cls-1" d="M75.26,85.29V1.7c-2.57-2.33-6.54-2.27-9.01.21L1.92,66.24c-2.55,2.55-2.55,6.7,0,9.25l64.33,64.32c2.55,2.55,6.7,2.55,9.25,0l27.53-27.53c-27.71-9.05-27.76-26.93-27.76-27h0Z"/>
  <path class="cls-1" d="M94.76,46.27h0s15.43-9.65,15.43-9.65L75.49,1.92c-2.55-2.55-6.69-2.55-9.25,0L1.92,66.24c-2.55,2.55-2.55,6.7,0,9.25l47.43,47.42c-11.24-39.42,25.91-63.64,25.91-63.64h0s19.51-13.01,19.51-13.01Z"/>
  <polygon class="cls-1" points="94.77 46.27 94.76 46.27 75.26 59.28 75.26 59.28 94.76 46.27 94.77 46.27"/>
  <path class="cls-1" d="M139.82,66.25L75.49,1.92c-2.55-2.55-6.69-2.55-9.25,0L16.73,51.43c38.37-26.3,78.04-5.16,78.04-5.16l19.51,13.01,25.54,16.22c2.47-2.56,2.53-6.72,0-9.25Z"/>
  <path class="cls-1" d="M139.82,66.25l-29.63-29.63c2.17,7.13,4.08,14.57,4.08,22.07v26.6h15.75l9.8-9.79c2.55-2.55,2.55-6.7,0-9.25Z"/>
</svg>